<svg id="Layer_1" data-name="Layer 1" xmlns="http://www.w3.org/2000/svg" xmlns:xlink="http://www.w3.org/1999/xlink" viewBox="0 0 1178.56 666.42"><defs><style>.cls-1,.cls-2{fill:none;}.cls-1{stroke-miterlimit:10;stroke-width:50px;stroke:url(#linear-gradient);}.cls-3{fill:#4dbbeb;}.cls-4{fill:#fff5cd;}.cls-5{fill:#fff;}.cls-6{fill:#bee7f4;}</style><linearGradient id="linear-gradient" x1="907.98" y1="233.2" x2="27.7" y2="233.2" gradientUnits="userSpaceOnUse"><stop offset="0" stop-color="#87f1fc"/><stop offset="0.26" stop-color="#7fd4fb"/><stop offset="0.53" stop-color="#78bcfb"/><stop offset="0.78" stop-color="#74aefa"/><stop offset="1" stop-color="#73a9fa"/></linearGradient></defs><title>search</title><path class="cls-1" d="M884.26,122.89A126.82,126.82,0,0,0,764,36.16H179.47A126.77,126.77,0,0,0,52.7,162.93V303.47A126.77,126.77,0,0,0,179.47,430.24H643.72V402.53" transform="translate(-27.7 -11.16)"/><line class="cls-2" x1="964.58" y1="237.31" x2="506.14" y2="237.31"/><path class="cls-3" d="M1073.13,540q-5.78,5.93-11.94,11.48-5.55,6.15-11.48,11.94l95.34,95.34a29.94,29.94,0,0,0,30.67,7.25,30,30,0,0,0-7.25-30.67Z" transform="translate(-27.7 -11.16)"/><path class="cls-4" d="M1048.48,562.22c4.64-3.65,9.12-7.47,13.49-11.43q5.94-6.56,11.43-13.49l-41.2-41.2q-6.06,6.4-12.69,12.23-5.82,6.62-12.23,12.69Z" transform="translate(-27.7 -11.16)"/><path class="cls-3" d="M920.26,177.36c-92.51,12.72-164,92.27-164,188.22s71.5,175.51,164,188.22a189,189,0,0,0,85.38-34.4A191.29,191.29,0,0,0,1048.08,477a189,189,0,0,0,36.18-111.41C1084.26,269.63,1012.77,190.08,920.26,177.36Z" transform="translate(-27.7 -11.16)"/><path class="cls-5" d="M894.26,215.58c82.71,0,150,67.29,150,150s-67.29,150-150,150-150-67.29-150-150S811.55,215.58,894.26,215.58Z" transform="translate(-27.7 -11.16)"/><path class="cls-6" d="M919.26,217.67c-70.85,11.94-125,73.72-125,147.91s54.15,136,125,147.9c70.85-11.93,125-73.71,125-147.9S990.11,229.61,919.26,217.67Z" transform="translate(-27.7 -11.16)"/><path d="M1194.54,609.3,1061.06,475.82a198.2,198.2,0,0,0,33.2-110.24c0-110.28-89.72-200-200-200s-200,89.72-200,200,89.72,200,200,200a198.27,198.27,0,0,0,110.24-33.2l36.89,36.89,0,0L1138,665.86a40,40,0,1,0,56.56-56.56Zm-173.76-88.93a200.43,200.43,0,0,0,28.27-28.28l28.37,28.37a242,242,0,0,1-28.27,28.28ZM714.26,365.58c0-99.26,80.75-180,180-180s180,80.74,180,180A178.44,178.44,0,0,1,1040,471.11,180.71,180.71,0,0,1,999.8,511.3h0a178.47,178.47,0,0,1-105.54,34.27C795,545.58,714.26,464.83,714.26,365.58ZM1180.4,651.72a20,20,0,0,1-28.28,0l-88.79-88.8a263,263,0,0,0,28.27-28.28l88.8,88.8a20,20,0,0,1,0,28.28Z" transform="translate(-27.7 -11.16)"/><path d="M1054.26,365.58c0-88.23-71.77-160-160-160s-160,71.77-160,160,71.77,160,160,160S1054.26,453.8,1054.26,365.58Zm-160,140c-77.2,0-140-62.81-140-140s62.8-140,140-140,140,62.8,140,140S971.46,505.58,894.26,505.58Z" transform="translate(-27.7 -11.16)"/><path d="M1000.58,335.57a10,10,0,0,0,5.75-12.92,120.22,120.22,0,0,0-112.07-77.07,10,10,0,0,0,0,20,100.66,100.66,0,0,1,93.39,64.24,10,10,0,0,0,9.34,6.42A9.84,9.84,0,0,0,1000.58,335.57Z" transform="translate(-27.7 -11.16)"/><path d="M1004.26,355.58a10,10,0,1,0,10,10A10,10,0,0,0,1004.26,355.58Z" transform="translate(-27.7 -11.16)"/></svg>